<svg width="247" height="430" viewBox="0 0 247 430" fill="none" xmlns="http://www.w3.org/2000/svg">
<g clip-path="url(#clip0_504_99)">
<g opacity="0.25">
<path d="M214.121 399.456L215.411 412.355L191.548 429.768V399.456H168.33L166.396 412.355" stroke="white" stroke-width="0.5"/>
<path d="M59.9779 354.955L71.5868 344.636L90.2901 358.18M90.2901 358.18L69.652 382.042M90.2901 358.18L108.348 370.433L90.2901 399.456H119.312L126.407 383.332" stroke="white" stroke-width="0.5"/>
<path d="M16.1235 245.316H23.8628L30.9571 267.244M30.9571 267.244L7.0943 271.759M30.9571 267.244L38.0515 287.883L8.38418 298.847L32.247 316.26L45.1458 309.166" stroke="white" stroke-width="0.5"/>
<path d="M16.7672 222.098H23.2166L30.311 200.17M30.311 200.17L7.73804 195.656M30.311 200.17L37.4053 178.887M37.4053 178.887L10.9627 169.858M37.4053 178.887L44.4997 157.604L34.1806 152.445" stroke="white" stroke-width="0.5"/>
<path d="M59.9779 111.812L72.8767 124.066L90.9351 110.522M90.9351 110.522L69.0071 84.0797M90.9351 110.522L108.993 97.6234M108.993 97.6234L90.9351 68.6011M108.993 97.6234L126.407 84.0797L119.312 68.6011" stroke="white" stroke-width="0.5"/>
<path d="M308.282 67.9565H74.1681L-6.10352e-05 293.041L191.547 429.768L383.095 293.041L308.282 67.9565Z" stroke="white" stroke-width="0.5"/>
<path d="M191.549 37L1.2915 176.307L74.8148 399.457H308.928L383.097 176.307L191.549 37Z" stroke="white" stroke-width="0.5"/>
<path d="M191.548 37.6445V67.9568H214.121M214.121 67.9568L216.056 55.0579M214.121 67.9568H168.33L166.396 55.7029" stroke="white" stroke-width="0.5"/>
</g>
<path opacity="0.25" d="M170.577 212.928H155.508C154.929 209.708 153.85 206.875 152.273 204.428C150.695 201.981 148.763 199.904 146.477 198.198C144.191 196.491 141.632 195.204 138.798 194.334C135.997 193.465 133.019 193.03 129.864 193.03C124.165 193.03 119.061 194.463 114.554 197.329C110.079 200.194 106.537 204.396 103.929 209.934C101.353 215.472 100.065 222.233 100.065 230.218C100.065 238.267 101.353 245.061 103.929 250.598C106.537 256.136 110.095 260.322 114.602 263.155C119.11 265.989 124.181 267.405 129.815 267.405C132.938 267.405 135.9 266.987 138.702 266.15C141.535 265.28 144.095 264.009 146.381 262.334C148.667 260.66 150.598 258.616 152.176 256.201C153.786 253.754 154.897 250.953 155.508 247.797L170.577 247.846C169.772 252.707 168.21 257.183 165.892 261.272C163.606 265.329 160.66 268.838 157.054 271.8C153.48 274.73 149.391 277 144.787 278.61C140.183 280.22 135.16 281.025 129.719 281.025C121.154 281.025 113.524 278.996 106.827 274.939C100.13 270.85 94.8493 265.007 90.9857 257.408C87.1543 249.81 85.2385 240.746 85.2385 230.218C85.2385 219.657 87.1704 210.594 91.034 203.027C94.8976 195.429 100.178 189.601 106.875 185.545C113.572 181.456 121.186 179.411 129.719 179.411C134.967 179.411 139.861 180.168 144.4 181.681C148.972 183.162 153.078 185.351 156.716 188.249C160.354 191.115 163.364 194.624 165.747 198.777C168.13 202.899 169.739 207.616 170.577 212.928ZM197.622 180.763L221.287 219.448H222.06L245.724 180.763H263.014L232.202 230.218L263.207 279.672H245.821L222.06 241.519H221.287L197.525 279.672H180.139L211.676 230.218L180.332 180.763H197.622Z" fill="white" fill-opacity="0.24"/>
</g>
<defs>
<clipPath id="clip0_504_99">
<rect width="247" height="430" fill="white"/>
</clipPath>
</defs>
</svg>
