<svg width="385" height="394" viewBox="0 0 385 394" fill="none" xmlns="http://www.w3.org/2000/svg">
<path d="M311.803 308.745L324.057 319.709L315.028 347.441L293.745 321.643L275.686 334.542L293.745 362.92H263.432L256.338 347.441" stroke="white" stroke-width="0.5"/>
<path d="M215.064 362.919L216.354 375.817L192.491 393.231V362.919H169.274L167.339 375.817" stroke="white" stroke-width="0.5"/>
<path d="M60.9211 318.417L72.5301 308.098L91.2334 321.642M91.2334 321.642L70.5953 345.505M91.2334 321.642L109.292 333.896L91.2334 362.918H120.256L127.35 346.795" stroke="white" stroke-width="0.5"/>
<path d="M17.0665 208.779H24.8058L31.9002 230.707M31.9002 230.707L8.03735 235.221M31.9002 230.707L38.9945 251.345L9.32724 262.309L33.19 279.722L46.0889 272.628" stroke="white" stroke-width="0.5"/>
<path d="M17.7103 185.561H24.1597L31.2541 163.633M31.2541 163.633L8.68115 159.118M31.2541 163.633L38.3484 142.35M38.3484 142.35L11.9059 133.32M38.3484 142.35L45.4428 121.067L35.1237 115.907" stroke="white" stroke-width="0.5"/>
<path d="M60.9211 75.2745L73.82 87.5284L91.8783 73.9846M91.8783 73.9846L69.9503 47.542M91.8783 73.9846L109.937 61.0858M109.937 61.0858L91.8783 32.0634M109.937 61.0858L127.35 47.542L120.256 32.0634" stroke="white" stroke-width="0.5"/>
<path d="M309.225 31.4188H75.1113L0.943115 256.503L192.491 393.231L384.038 256.503L309.225 31.4188Z" stroke="white" stroke-width="0.5"/>
<path d="M192.492 0.462402L2.23462 139.77L75.7579 362.919H309.871L384.04 139.77L192.492 0.462402Z" stroke="white" stroke-width="0.5"/>
<path d="M192.491 1.10703V31.4193H215.064M215.064 31.4193L216.999 18.5204M215.064 31.4193H169.274L167.339 19.1654" stroke="white" stroke-width="0.5"/>
<path d="M264.079 31.4188L257.629 47.5423L275.688 60.4412M275.688 60.4412L293.101 31.4188M275.688 60.4412L293.101 73.34L314.384 47.5423L324.058 75.2748L311.16 86.8837" stroke="white" stroke-width="0.5"/>
<path d="M350.498 115.262L339.534 120.421L345.984 142.349M345.984 142.349L373.716 132.675M345.984 142.349L353.723 164.277M353.723 164.277L377.586 159.763M353.723 164.277L360.817 185.56H368.557" stroke="white" stroke-width="0.5"/>
<path d="M367.915 208.779H361.465L354.371 230.707M354.371 230.707L376.944 235.866M354.371 230.707L347.276 251.99M347.276 251.99L375.009 262.309M347.276 251.99L340.182 273.273L351.791 279.722" stroke="white" stroke-width="0.5"/>
<path d="M171.52 181.391H156.452C155.872 178.171 154.793 175.338 153.216 172.891C151.638 170.444 149.706 168.367 147.42 166.66C145.134 164.954 142.575 163.666 139.741 162.797C136.94 161.927 133.962 161.493 130.807 161.493C125.108 161.493 120.005 162.926 115.497 165.791C111.022 168.657 107.48 172.858 104.872 178.396C102.296 183.934 101.008 190.695 101.008 198.68C101.008 206.73 102.296 213.523 104.872 219.061C107.48 224.599 111.038 228.784 115.545 231.618C120.053 234.451 125.124 235.868 130.758 235.868C133.881 235.868 136.844 235.449 139.645 234.612C142.478 233.743 145.038 232.471 147.324 230.797C149.61 229.123 151.542 227.078 153.119 224.663C154.729 222.216 155.84 219.415 156.452 216.26L171.52 216.308C170.715 221.17 169.153 225.645 166.835 229.734C164.549 233.791 161.603 237.301 157.997 240.263C154.423 243.193 150.334 245.463 145.73 247.072C141.126 248.682 136.103 249.487 130.662 249.487C122.097 249.487 114.467 247.459 107.77 243.402C101.073 239.313 95.7925 233.469 91.9288 225.871C88.0974 218.272 86.1817 209.209 86.1817 198.68C86.1817 188.12 88.1135 179.056 91.9771 171.49C95.8408 163.891 101.121 158.064 107.818 154.007C114.515 149.918 122.13 147.873 130.662 147.873C135.91 147.873 140.804 148.63 145.344 150.143C149.916 151.624 154.021 153.814 157.659 156.712C161.297 159.577 164.308 163.087 166.69 167.24C169.073 171.361 170.683 176.078 171.52 181.391ZM198.565 149.226L222.23 187.91H223.003L246.667 149.226H263.957L233.145 198.68L264.15 248.135H246.764L223.003 209.981H222.23L198.469 248.135H181.082L212.619 198.68L181.275 149.226H198.565Z" fill="white" fill-opacity="0.24"/>
</svg>
