<svg width="136" height="139" viewBox="0 0 136 139" fill="none" xmlns="http://www.w3.org/2000/svg">
<path d="M109.733 108.831L114.019 112.666L110.861 122.366L103.416 113.343L97.0998 117.855L103.416 127.78H92.8136L90.3322 122.366" stroke="white" stroke-width="0.5"/>
<path d="M75.8955 127.78L76.3467 132.292L68 138.383V127.78H59.8788L59.202 132.292" stroke="white" stroke-width="0.5"/>
<path d="M21.9791 112.214L26.0397 108.605L32.5817 113.342M32.5817 113.342L25.3629 121.689M32.5817 113.342L38.8982 117.629L32.5817 127.78H42.7332L45.2146 122.14" stroke="white" stroke-width="0.5"/>
<path d="M6.63962 73.8652H9.34667L11.8281 81.5352M11.8281 81.5352L3.48138 83.1143M11.8281 81.5352L14.3096 88.7541L3.93256 92.5891L12.2793 98.6799L16.7911 96.1985" stroke="white" stroke-width="0.5"/>
<path d="M6.86478 65.7439H9.12066L11.6021 58.0739M11.6021 58.0739L3.70654 56.4948M11.6021 58.0739L14.0836 50.6295M14.0836 50.6295L4.83448 47.4712M14.0836 50.6295L16.5651 43.1851L12.9557 41.3804" stroke="white" stroke-width="0.5"/>
<path d="M21.9791 27.1681L26.4908 31.4543L32.8073 26.7169M32.8073 26.7169L25.1373 17.4678M32.8073 26.7169L39.1238 22.2052M39.1238 22.2052L32.8073 12.0537M39.1238 22.2052L45.2146 17.4678L42.7332 12.0537" stroke="white" stroke-width="0.5"/>
<path d="M108.831 11.8281H26.9426L0.999939 90.5584L67.9996 138.383L134.999 90.5584L108.831 11.8281Z" stroke="white" stroke-width="0.5"/>
<path d="M68.0002 1L1.45166 49.727L27.1687 127.781H109.057L135 49.727L68.0002 1Z" stroke="white" stroke-width="0.5"/>
<path d="M68 1.22559V11.8282H75.8955M75.8955 11.8282L76.5723 7.31647M75.8955 11.8282H59.8788L59.202 7.54205" stroke="white" stroke-width="0.5"/>
<path d="M93.0397 11.8281L90.7838 17.4678L97.1003 21.9796M97.1003 21.9796L103.191 11.8281M97.1003 21.9796L103.191 26.4914L110.636 17.4678L114.019 27.1681L109.508 31.2287" stroke="white" stroke-width="0.5"/>
<path d="M123.268 41.1548L119.433 42.9595L121.689 50.6295M121.689 50.6295L131.389 47.2457M121.689 50.6295L124.396 58.2995M124.396 58.2995L132.742 56.7204M124.396 58.2995L126.877 65.7439H129.584" stroke="white" stroke-width="0.5"/>
<path d="M129.36 73.8652H127.104L124.622 81.5352M124.622 81.5352L132.518 83.3399M124.622 81.5352L122.141 88.9796M122.141 88.9796L131.841 92.5891M122.141 88.9796L119.659 96.424L123.72 98.6799" stroke="white" stroke-width="0.5"/>
<path d="M63.5653 63.4801H57.8039C57.5823 62.2491 57.1699 61.1657 56.5667 60.2301C55.9635 59.2945 55.2248 58.5005 54.3508 57.848C53.4767 57.1955 52.498 56.7031 51.4147 56.3707C50.3437 56.0384 49.205 55.8722 47.9985 55.8722C45.8195 55.8722 43.8683 56.42 42.1448 57.5156C40.4337 58.6113 39.0795 60.2178 38.0823 62.3352C37.0975 64.4527 36.6051 67.0379 36.6051 70.0909C36.6051 73.1686 37.0975 75.7661 38.0823 77.8835C39.0795 80.0009 40.4398 81.6013 42.1633 82.6847C43.8868 83.768 45.8257 84.3097 47.9801 84.3097C49.1742 84.3097 50.3068 84.1496 51.3778 83.8295C52.4611 83.4972 53.4398 83.0109 54.3139 82.3707C55.1879 81.7306 55.9265 80.9489 56.5298 80.0256C57.1453 79.09 57.57 78.0189 57.8039 76.8125L63.5653 76.831C63.2575 78.6899 62.6605 80.401 61.7741 81.9645C60.9 83.5156 59.7736 84.8575 58.3948 85.9901C57.0283 87.1103 55.4649 87.9782 53.7045 88.5938C51.9441 89.2093 50.0236 89.517 47.9431 89.517C44.6685 89.517 41.7509 88.7415 39.1903 87.1903C36.6297 85.6269 34.6107 83.3925 33.1335 80.4872C31.6685 77.5819 30.936 74.1165 30.936 70.0909C30.936 66.053 31.6747 62.5876 33.1519 59.6946C34.6292 56.7893 36.6481 54.5611 39.2087 53.0099C41.7694 51.4465 44.6808 50.6648 47.9431 50.6648C49.9497 50.6648 51.821 50.9541 53.5568 51.5327C55.3049 52.099 56.8745 52.9361 58.2656 54.044C59.6567 55.1397 60.8077 56.4815 61.7187 58.0696C62.6297 59.6454 63.2452 61.4489 63.5653 63.4801ZM73.9062 51.1818L82.9545 65.973H83.2499L92.2982 51.1818H98.909L87.1278 70.0909L98.9829 89H92.3352L83.2499 74.4119H82.9545L73.8693 89H67.2215L79.2798 70.0909L67.2954 51.1818H73.9062Z" fill="white" fill-opacity="0.24"/>
</svg>
