<svg width="50" height="50" viewBox="0 0 50 50" fill="none" xmlns="http://www.w3.org/2000/svg">
<rect width="50" height="50" rx="25" fill="white" fill-opacity="0.24"/>
<rect x="0.5" y="0.5" width="49" height="49" rx="24.5" stroke="url(#paint0_linear_358_389)" stroke-opacity="0.4"/>
<path d="M15.036 25.322C14.967 25.1146 14.967 24.8904 15.036 24.683C16.423 20.51 20.36 17.5 25 17.5C29.638 17.5 33.573 20.507 34.963 24.678C35.033 24.885 35.033 25.109 34.963 25.317C33.577 29.49 29.64 32.5 25 32.5C20.362 32.5 16.427 29.493 15.037 25.322H15.036Z" stroke="white" stroke-linecap="round" stroke-linejoin="round"/>
<path d="M28 25C28 25.7956 27.6839 26.5587 27.1213 27.1213C26.5587 27.6839 25.7956 28 25 28C24.2044 28 23.4413 27.6839 22.8787 27.1213C22.3161 26.5587 22 25.7956 22 25C22 24.2044 22.3161 23.4413 22.8787 22.8787C23.4413 22.3161 24.2044 22 25 22C25.7956 22 26.5587 22.3161 27.1213 22.8787C27.6839 23.4413 28 24.2044 28 25V25Z" stroke="white" stroke-linecap="round" stroke-linejoin="round"/>
<defs>
<linearGradient id="paint0_linear_358_389" x1="0" y1="0" x2="16.3793" y2="27.5862" gradientUnits="userSpaceOnUse">
<stop stop-color="white"/>
<stop offset="1" stop-color="white" stop-opacity="0"/>
</linearGradient>
</defs>
</svg>
