<svg width="49" height="50" viewBox="0 0 49 50" fill="none" xmlns="http://www.w3.org/2000/svg">
<path d="M39.1376 38.7279L40.641 40.073L39.5332 43.4753L36.9222 40.3104L34.7067 41.8928L36.9222 45.3743H33.2034L32.333 43.4753" stroke="white" stroke-width="0.5"/>
<path d="M27.2694 45.3742L27.4277 46.9567L24.5001 49.093V45.3742H21.6517L21.4143 46.9567" stroke="white" stroke-width="0.5"/>
<path d="M8.3584 39.9147L9.78262 38.6488L12.0772 40.3104M12.0772 40.3104L9.54525 43.2379M12.0772 40.3104L14.2927 41.8137L12.0772 45.3743H15.6377L16.5081 43.3962" stroke="white" stroke-width="0.5"/>
<path d="M2.97833 26.4638H3.92781L4.79817 29.154M4.79817 29.154L1.87061 29.7078M4.79817 29.154L5.66853 31.6859L2.02885 33.031L4.95642 35.1673L6.53888 34.297" stroke="white" stroke-width="0.5"/>
<path d="M3.05719 23.6153H3.84842L4.71878 20.9251M4.71878 20.9251L1.94946 20.3713M4.71878 20.9251L5.58914 18.3141M5.58914 18.3141L2.34508 17.2063M5.58914 18.3141L6.45949 15.703L5.19352 15.07" stroke="white" stroke-width="0.5"/>
<path d="M8.3584 10.0852L9.94087 11.5885L12.1563 9.92695M12.1563 9.92695L9.46613 6.6829M12.1563 9.92695L14.3718 8.34449M14.3718 8.34449L12.1563 4.78394M14.3718 8.34449L16.5081 6.6829L15.6377 4.78394" stroke="white" stroke-width="0.5"/>
<path d="M38.8212 4.7049H10.0994L1.00024 32.3189L24.4999 49.0931L47.9995 32.3189L38.8212 4.7049Z" stroke="white" stroke-width="0.5"/>
<path d="M24.5001 0.906982L1.15869 17.9976L10.1788 45.3743H38.9005L47.9997 17.9976L24.5001 0.906982Z" stroke="white" stroke-width="0.5"/>
<path d="M24.5001 0.986023V4.70482H27.2694M27.2694 4.70482L27.5068 3.12235M27.2694 4.70482H21.6517L21.4143 3.20148" stroke="white" stroke-width="0.5"/>
<path d="M33.2824 4.7049L32.4912 6.68298L34.7067 8.26545M34.7067 8.26545L36.843 4.7049M34.7067 8.26545L36.843 9.84791L39.4541 6.68298L40.6409 10.0853L39.0584 11.5095" stroke="white" stroke-width="0.5"/>
<path d="M43.8846 14.9909L42.5396 15.6239L43.3308 18.3141M43.3308 18.3141L46.7331 17.1273M43.3308 18.3141L44.2803 21.0043M44.2803 21.0043L47.2078 20.4504M44.2803 21.0043L45.1506 23.6154H46.1001" stroke="white" stroke-width="0.5"/>
<path d="M46.0214 26.4638H45.2302L44.3599 29.154M44.3599 29.154L47.1292 29.787M44.3599 29.154L43.4895 31.765M43.4895 31.765L46.8918 33.031M43.4895 31.765L42.6191 34.3761L44.0434 35.1673" stroke="white" stroke-width="0.5"/>
<path d="M22.9427 23.1478H21.17C21.1018 22.769 20.9749 22.4357 20.7893 22.1478C20.6037 21.8599 20.3764 21.6156 20.1075 21.4148C19.8385 21.2141 19.5374 21.0626 19.2041 20.9603C18.8745 20.858 18.5241 20.8069 18.1529 20.8069C17.4825 20.8069 16.8821 20.9754 16.3518 21.3126C15.8253 21.6497 15.4086 22.144 15.1018 22.7955C14.7988 23.447 14.6472 24.2425 14.6472 25.1819C14.6472 26.1288 14.7988 26.9281 15.1018 27.5796C15.4086 28.2311 15.8272 28.7235 16.3575 29.0569C16.8878 29.3902 17.4844 29.5569 18.1472 29.5569C18.5147 29.5569 18.8631 29.5076 19.1927 29.4092C19.526 29.3069 19.8272 29.1573 20.0961 28.9603C20.365 28.7633 20.5923 28.5228 20.7779 28.2387C20.9673 27.9508 21.098 27.6213 21.17 27.2501L22.9427 27.2557C22.848 27.8277 22.6643 28.3542 22.3916 28.8353C22.1226 29.3126 21.776 29.7254 21.3518 30.0739C20.9313 30.4186 20.4503 30.6857 19.9086 30.8751C19.3669 31.0645 18.776 31.1592 18.1359 31.1592C17.1283 31.1592 16.2306 30.9205 15.4427 30.4432C14.6548 29.9622 14.0336 29.2747 13.5791 28.3807C13.1283 27.4868 12.9029 26.4205 12.9029 25.1819C12.9029 23.9395 13.1302 22.8732 13.5847 21.983C14.0393 21.0891 14.6605 20.4035 15.4484 19.9262C16.2363 19.4451 17.1321 19.2046 18.1359 19.2046C18.7533 19.2046 19.3291 19.2936 19.8631 19.4717C20.401 19.6459 20.884 19.9035 21.312 20.2444C21.74 20.5815 22.0942 20.9944 22.3745 21.483C22.6548 21.9679 22.8442 22.5228 22.9427 23.1478ZM26.1245 19.3637L28.9086 23.9148H28.9995L31.7836 19.3637H33.8177L30.1927 25.1819L33.8404 31.0001H31.795L28.9995 26.5114H28.9086L26.1131 31.0001H24.0677L27.7779 25.1819L24.0904 19.3637H26.1245Z" fill="white"/>
</svg>
