<svg width="183" height="189" viewBox="0 0 183 189" fill="none" xmlns="http://www.w3.org/2000/svg">
<path d="M88.853 88.3421L82.3161 88.3421C82.0646 86.9453 81.5967 85.7162 80.9123 84.6546C80.2279 83.5931 79.3898 82.6921 78.3981 81.9518C77.4064 81.2115 76.2959 80.6528 75.0668 80.2757C73.8516 79.8986 72.5595 79.71 71.1907 79.71C68.7184 79.71 66.5045 80.3316 64.549 81.5747C62.6075 82.8178 61.071 84.6406 59.9396 87.0431C58.8222 89.4456 58.2635 92.3788 58.2635 95.8428C58.2635 99.3348 58.8222 102.282 59.9396 104.684C61.071 107.087 62.6145 108.903 64.57 110.132C66.5254 111.361 68.7254 111.976 71.1697 111.976C72.5246 111.976 73.8097 111.794 75.0249 111.431C76.254 111.054 77.3645 110.502 78.3562 109.776C79.3479 109.049 80.186 108.162 80.8704 107.115C81.5688 106.053 82.0507 104.838 82.3161 103.469L88.853 103.49C88.5038 105.599 87.8264 107.541 86.8207 109.315C85.829 111.075 84.5509 112.597 82.9865 113.882C81.4361 115.153 79.6622 116.138 77.6648 116.836C75.6674 117.535 73.4884 117.884 71.1278 117.884C67.4124 117.884 64.102 117.004 61.1967 115.244C58.2914 113.47 56.0007 110.935 54.3246 107.639C52.6624 104.342 51.8313 100.41 51.8313 95.8428C51.8313 91.2614 52.6694 87.3294 54.3455 84.047C56.0217 80.7506 58.3124 78.2224 61.2177 76.4625C64.123 74.6886 67.4264 73.8016 71.1278 73.8016C73.4046 73.8016 75.5277 74.1299 77.4972 74.7864C79.4806 75.4289 81.2615 76.3787 82.8398 77.6358C84.4182 78.8789 85.7242 80.4014 86.7578 82.2033C87.7914 83.9911 88.4898 86.0374 88.853 88.3421ZM100.586 74.3883L110.852 91.1706L111.187 91.1706L121.454 74.3883L128.955 74.3883L115.587 95.8428L129.038 117.297L121.496 117.297L111.187 100.746L110.852 100.746L100.544 117.297L93.0014 117.297L106.683 95.8428L93.0852 74.3883L100.586 74.3883Z" fill="white" fill-opacity="0.66"/>
<path d="M148.182 147.458L154.003 152.666L149.714 165.841L139.603 153.585L131.024 159.713L139.603 173.195H125.202L121.832 165.841" stroke="white" stroke-width="0.5"/>
<path d="M102.224 173.194L102.837 179.322L91.5001 187.595V173.194H80.4698L79.5507 179.322" stroke="white" stroke-width="0.5"/>
<path d="M28.9941 152.053L34.5093 147.15L43.3948 153.585M43.3948 153.585L33.5901 164.921M43.3948 153.585L51.9738 159.406L43.3948 173.194H57.1826L60.5529 165.534" stroke="white" stroke-width="0.5"/>
<path d="M8.1599 99.9663H11.8367L15.207 110.384M15.207 110.384L3.87036 112.529M15.207 110.384L18.5774 120.188L4.48315 125.397L15.8198 133.67L21.9477 130.3" stroke="white" stroke-width="0.5"/>
<path d="M8.46569 88.936H11.5296L14.9 78.5185M14.9 78.5185L4.17615 76.3737M14.9 78.5185L18.2704 68.4074M18.2704 68.4074L5.70813 64.1179M18.2704 68.4074L21.6407 58.2964L16.7384 55.8452" stroke="white" stroke-width="0.5"/>
<path d="M28.9941 36.5417L35.1221 42.3632L43.7011 35.9289M43.7011 35.9289L33.2837 23.3667M43.7011 35.9289L52.2802 29.801M52.2802 29.801L43.7011 16.0132M52.2802 29.801L60.5529 23.3667L57.1826 16.0132" stroke="white" stroke-width="0.5"/>
<path d="M146.957 15.7065H35.7355L0.5 122.639L91.4996 187.595L182.499 122.639L146.957 15.7065Z" stroke="white" stroke-width="0.5"/>
<path d="M91.5003 1L1.11353 67.1815L36.0427 173.195H147.264L182.5 67.1815L91.5003 1Z" stroke="white" stroke-width="0.5"/>
<path d="M91.5001 1.30615V15.7068H102.224M102.224 15.7068L103.143 9.57884M102.224 15.7068H80.4698L79.5507 9.88524" stroke="white" stroke-width="0.5"/>
<path d="M125.509 15.7065L122.445 23.3664L131.025 29.4944M131.025 29.4944L139.297 15.7065M131.025 29.4944L139.297 35.6223L149.408 23.3664L154.004 36.5415L147.876 42.0566" stroke="white" stroke-width="0.5"/>
<path d="M166.565 55.5386L161.357 57.9897L164.421 68.4072M164.421 68.4072L177.596 63.8113M164.421 68.4072L168.097 78.8247M168.097 78.8247L179.434 76.6799M168.097 78.8247L171.468 88.9357H175.144" stroke="white" stroke-width="0.5"/>
<path d="M174.839 99.9663H171.775L168.405 110.384M168.405 110.384L179.129 112.835M168.405 110.384L165.035 120.495M165.035 120.495L178.21 125.397M165.035 120.495L161.664 130.606L167.179 133.67" stroke="white" stroke-width="0.5"/>
</svg>
